<?xml version="1.0" encoding="UTF-8" standalone="no"?>
<!-- Created with Inkscape (http://www.inkscape.org/) -->

<svg
   width="82.22126mm"
   height="128.18475mm"
   viewBox="0 0 123.33189 192.27713"
   version="1.1"
   id="svg5"
   inkscape:version="1.1 (c4e8f9e, 2021-05-24)"
   sodipodi:docname="Yeti2.svg"
   xmlns:inkscape="http://www.inkscape.org/namespaces/inkscape"
   xmlns:sodipodi="http://sodipodi.sourceforge.net/DTD/sodipodi-0.dtd"
   xmlns="http://www.w3.org/2000/svg"
   xmlns:svg="http://www.w3.org/2000/svg">
  <sodipodi:namedview
     id="namedview7"
     pagecolor="#ffffff"
     bordercolor="#666666"
     borderopacity="1.0"
     inkscape:pageshadow="2"
     inkscape:pageopacity="0.0"
     inkscape:pagecheckerboard="0"
     inkscape:document-units="mm"
     showgrid="false"
     inkscape:zoom="0.67081229"
     inkscape:cx="345.10399"
     inkscape:cy="243.73435"
     inkscape:window-width="1312"
     inkscape:window-height="1003"
     inkscape:window-x="234"
     inkscape:window-y="33"
     inkscape:window-maximized="0"
     inkscape:current-layer="layer1"
     fit-margin-bottom="0"
     fit-margin-top="0"
     fit-margin-left="0"
     fit-margin-right="0"
     scale-x="1.5" />
  <defs
     id="defs2">
    <inkscape:path-effect
       effect="bspline"
       id="path-effect2132"
       is_visible="true"
       lpeversion="1"
       weight="33.333333"
       steps="2"
       helper_size="0"
       apply_no_weight="true"
       apply_with_weight="true"
       only_selected="false" />
  </defs>
  <g
     inkscape:label="Layer 1"
     inkscape:groupmode="layer"
     id="layer1"
     transform="translate(-28.308566,-30.406568)">
    <path
       id="path1025"
       style="fill:#deaa87;stroke:#000000;stroke-width:0.999999px;stroke-linecap:butt;stroke-linejoin:miter;stroke-opacity:1"
       transform="scale(0.26458333)"
       d="m 306.50391,142.93359 c -0.95985,0.32659 0.73055,5.4617 0.58593,7.63086 -1.14923,17.23849 -1.0575,10.39063 -2.98046,23.85157 -0.52434,3.67033 -7.81288,-13.84655 -8.94532,-14.90821 -4.54229,-4.2584 -10.6601,-6.52722 -16.39844,-8.94336 -6.54825,-2.75716 -33.28379,-5.30232 -36.2246,-5.82422 5.2009,2.7201 29.14199,24.21513 30.26171,25.20313 3.96082,3.49483 7.9505,6.95718 11.92579,10.43555 -4.62968,0 -6.28963,0.1089 -10.4336,1.49023 -3.43962,1.14653 -19.99929,1.3657 -20.87109,1.49024 -12.98459,1.85491 -39.42331,5.49133 -50.6836,11.92578 -1.22028,0.69731 -1.83874,2.1655 -2.98242,2.98242 -7.73971,5.52836 -16.12306,9.28552 -23.85156,14.90625 -0.10789,0.0785 -13.63907,8.84913 -14.9082,10.43555 -15.20429,19.00535 -13.54158,57.91396 -20.86914,81.99023 -1.88086,6.17994 -5.24553,11.81777 -7.45313,17.88867 -5.55381,15.27296 -9.8529,29.89905 -10.43555,46.21289 -0.46766,13.09485 -0.0899,33.04475 1.49024,46.21289 1.74527,14.54396 8.91088,30.14311 7.45312,44.72071 -3.56721,35.67208 -5.08744,70.02298 -2.98047,105.84179 1.12601,19.14233 -16.18305,23.51471 1.49024,44.72266 0.31812,0.38173 -0.35138,-1.13874 0,-1.49024 0.35137,-0.35149 1.13885,0.3515 1.49023,0 1.57137,-1.57133 1.64908,-4.18511 2.98243,-5.96289 4.99161,-6.65552 4.97871,-12.21064 7.45312,-20.87109 0.40953,-1.43339 0,2.98193 0,4.47266 0,3.16735 0.9907,28.32422 7.45313,28.32422 1.08991,0 4.50761,-13.09818 6.79687,-22.37696 -1.52061,7.90602 -1.90918,16.16502 0.6582,23.86719 0.60424,1.81265 2.28506,2.15383 4.14454,2.26758 0.65386,-0.81692 1.30734,-1.6342 1.96093,-2.45117 0.79996,-0.99995 1.61839,-1.83878 2.43946,-2.53711 0.41074,-12.73238 0.15132,-28.95942 4.87109,-36.03907 0.27564,-0.41348 1.13885,-0.35149 1.49023,0 4.40223,4.40221 5.604,21.85227 7.45313,28.32422 0.41908,1.4668 1.7764,3.85738 2.25,5.53711 0.81011,-1.73985 2.13578,-4.75078 3.71289,-10.00781 2.3124,-7.70797 1.49219,-15.8823 1.49219,-23.85352 0,-11.57699 1.63287,-24.34718 0,-35.77734 -0.76236,-5.33654 -6.08588,-25.02224 -7.45508,-29.81445 -1.47028,-5.14594 -4.66487,-9.71416 -5.96289,-14.90625 -2.37497,-9.49988 0.36644,-52.90867 4.47265,-61.1211 3.40818,-6.81637 12.79213,-7.60959 19.37891,-5.96289 21.13028,5.28257 22.70841,12.57996 28.32422,32.79688 6.95819,25.04946 7.6878,51.79645 4.47266,77.51758 -2.28328,18.26623 -9.88077,36.07681 -14.90625,53.66601 -1.09209,3.82231 0,7.95051 0,11.92578 0,23.13819 3.78897,34.90932 5.96289,56.64844 1.30309,13.03094 1.44406,31.72607 0,44.72266 -0.84407,7.59658 -3.70782,14.71097 -4.47266,22.35937 -0.85398,8.53981 -1.72554,18.59265 -4.47266,26.83399 -3.00374,9.01122 -11.00729,27.40574 -17.88867,34.2871 -3.48836,3.48836 -17.31297,1.49024 -22.36133,1.49024 -27.31985,0 5.13712,-0.78062 -26.83203,2.98047 -1.86341,0.21921 -21.29652,-0.25058 -22.36133,0 -12.05949,2.83755 -17.46905,4.92091 -13.41601,17.89062 1.39826,4.47447 4.33869,8.42205 7.45312,11.92578 1.15064,1.29445 51.01717,7.20066 53.66602,7.45313 3.4627,0.32957 7.01676,-0.64105 10.43555,0 4.63336,0.86876 8.86108,3.25799 13.41601,4.47266 12.02344,3.20624 30.82777,1.49023 40.25,1.49023 15.20084,0 32.65576,1.29259 43.23047,-11.92578 7.21966,-9.02457 6.62265,-34.75691 7.45313,-44.72266 1.12103,-13.45251 2.72668,-26.86427 4.47265,-40.25 1.74301,-13.36308 5.31792,-26.70369 5.96289,-40.24804 0.82967,-17.42302 -4.26187,-65.69722 16.39844,-76.02735 8.0558,-4.02792 18.72524,1.16247 25.3418,4.4707 15.89488,7.94744 28.84889,14.46537 37.26953,31.30665 2.10822,4.2164 2.67579,9.05697 4.4707,13.41601 3.86684,9.39088 10.58957,15.21429 14.9082,23.85156 2.74878,5.49755 2.52896,12.05766 4.47266,17.88868 5.08399,15.25201 13.88479,32.5417 11.92578,49.19336 -0.93449,7.94311 -3.96413,29.31679 -14.9082,31.30664 -12.20156,2.21846 -44.19373,-1.71775 -55.15625,2.98046 -3.24435,1.39042 -5.78797,7.14717 -4.47266,10.43555 11.39021,28.47553 26.02858,23.02529 49.19336,25.3418 4.55853,0.45585 8.94577,1.98859 13.41797,2.98242 3.97527,0.49689 7.936,1.1274 11.92578,1.49023 9.07412,0.82492 19.44615,0 28.32422,0 13.1845,0 46.03372,0.23757 55.15625,-11.92578 2.40816,-3.21086 -4.02856,-38.02941 -4.47266,-40.25 -2.31692,-11.58459 -2.67507,-22.60285 -4.47265,-34.28711 -2.57575,-16.74243 -0.25699,3.18012 -4.47071,-17.88867 -3.79904,-18.99534 -7.18915,-38.82094 -8.94531,-58.13867 -0.26191,-2.88094 -1.39564,-6.98822 -2.18945,-10.76563 -0.73986,-0.91467 -0.75448,-2.27287 -0.87891,-4.40429 0.0705,-0.023 0.14056,-0.0471 0.21094,-0.0703 -0.0274,-0.3699 -0.12305,-0.81805 -0.12305,-1.15625 0,-0.13136 0.14109,-0.10996 0.22266,-0.15235 -2.83949,-0.86259 -4.37988,-1.947 -0.66602,-2.86328 -0.15069,-0.53682 -0.26537,-1.08982 -0.43945,-1.96289 -0.50779,-0.72624 -0.91161,-0.49658 -2.09961,-2.47656 -0.76698,-1.27828 0.24492,-3.00028 0,-4.47071 -1.32982,-7.97907 -2.83378,-15.93024 -4.47265,-23.85156 -2.44695,-11.82674 -7.79284,-27.59448 -8.94336,-40.25 -0.49486,-5.44358 0.21845,-10.93679 0,-16.39844 -0.82247,-20.56142 -3.98488,-40.6796 -5.96289,-61.11914 -1.00627,-10.39838 -0.19447,-20.94038 -1.49024,-31.30664 -4.1509,-33.20708 -2.98242,4.81433 -2.98242,-32.79492 0,-15.5325 -0.0937,-26.20001 16.39844,-32.79687 2.20078,-0.88033 11.33603,9.44906 14.90625,13.41601 17.13694,19.041 23.45833,42.92328 29.8164,67.08399 2.71537,10.31845 8.04961,21.66576 5.96289,32.79492 -3.8183,20.36432 -22.15155,42.79701 -17.89062,64.10156 1.03249,5.16242 8.05459,21.46303 13.41797,13.41797 1.10256,-1.65381 -0.32655,-4.00425 0,-5.96484 0.46991,-2.81934 1.9171,-7.59793 2.98047,-10.4336 1.52861,-4.07631 5.27567,-8.32084 5.84765,-12.40234 0.013,0.19702 0.0466,0.37359 0.11524,0.47656 4.45916,6.68878 3.24854,-1.78093 5.96289,10.43359 1.77698,7.99646 -0.15783,29.99118 4.47265,35.7793 0.98162,1.22691 3.01369,0.90664 4.47266,1.49024 1.03166,0.41268 1.90255,1.75971 2.98047,1.49023 1.36354,-0.34091 1.98859,-1.98664 2.98242,-2.98047 6.29189,-6.29189 4.22386,-6.45132 2.98047,-16.39844 -0.5775,-4.62021 -0.68343,-9.2996 -1.35742,-13.90429 3.16075,9.31943 3.77606,21.75953 8.8125,28.81054 3.47134,4.85987 8.94336,-1.93411 8.94336,-4.4707 0,-5.96706 -0.43384,-11.92416 -0.90821,-17.87695 2.40278,5.73987 11.76776,22.4927 17.30664,17.87695 5.80048,-4.83371 1.97054,-11.11519 1.49024,-16.39844 -0.26986,-2.96923 0.42164,-5.9938 0,-8.94531 -0.80126,-5.6087 -4.47266,-10.73281 -4.47266,-16.39844 0,-0.49693 1.49219,0.4969 1.49219,0 0,-6.20133 -3.51742,-18.43841 -4.47266,-23.85156 -2.44924,-13.87892 -4.38913,-27.95229 -7.45312,-41.74023 -0.68175,-3.06792 -2.42022,-5.85133 -2.98242,-8.94336 -0.44444,-2.44449 0.17688,-4.97685 0,-7.45508 -1.66874,-23.35971 -1.49024,-46.61465 -1.49024,-70.0625 0,-8.13396 2.13203,-22.3543 0,-29.81641 -0.62529,-2.18851 -0.89199,-3.01312 -1.30664,-4.39843 -0.43555,-2.96669 -1.71504,-9.80598 -4.65625,-23.92383 -2.31107,-11.09311 -6.39734,-21.75578 -8.94531,-32.79688 -1.91259,-8.2879 -1.52308,-16.96188 -2.98047,-25.34179 -0.70208,-4.03703 -2.24942,-7.89424 -2.98242,-11.92579 -5.15985,-28.3793 -7.48345,-57.43805 -23.85156,-81.99023 -8.07428,-12.1114 -2.75534,-3.8542 -10.4336,-10.43555 -16.14784,-13.84099 -2.68119,-5.52296 -43.23242,-11.92578 -15.35044,-2.42376 -30.78406,-4.14774 -46.21289,-5.96289 -4.76357,-0.56042 -32.98782,-3.17336 -34.28711,-4.47266 -1.89203,-1.89203 -9.88144,-12.31172 -10.43359,-13.41601 -2.60107,-5.20215 -4.12362,-10.88073 -5.96289,-16.39844 -0.15723,-0.47141 0.49693,-1.49023 0,-1.49023 -8.84724,0 -11.84657,13.2827 -16.39844,20.86914 -1.94702,3.24506 -3.14389,6.89215 -4.47266,10.43554 -0.17461,0.46528 0.29821,1.88777 0,1.49024 -3.22492,-4.29992 -5.96191,-8.94383 -8.94336,-13.41602 -3.47837,-2.98146 -7.43513,-5.48133 -10.43554,-8.94336 -3.52018,-4.06176 -4.47311,-10.43652 -8.94532,-13.41796 -0.2584,-0.17228 -0.44881,-0.22244 -0.58593,-0.17579 z m 161.14257,515.93555 c 0.13985,0.49817 0.34287,1.14955 0.75977,2.55274 0.006,0.0781 0.0129,0.15627 0.0195,0.23437 0.006,-4e-4 0.006,-0.008 0.0117,-0.008 0.0788,-0.62894 0.27238,-1.18433 0.56055,-1.66602 -0.28474,-0.27108 -0.61355,-0.66193 -1.01563,-1.1914 -0.11562,0.0261 -0.22909,0.0518 -0.33594,0.0781 z m 1.35157,1.11328 c 0.35781,0.34067 0.66494,0.51483 1.00976,0.63281 -0.37178,-0.29786 -0.54932,-0.51568 -0.90039,-0.79687 -0.0364,0.0547 -0.0755,0.10741 -0.10937,0.16406 z M 181.13672,612.26367 c -0.57606,1.23717 -0.92669,1.91797 -0.75781,1.91797 1.00825,0 1.07082,-0.80778 0.75781,-1.91797 z m 61.4043,-467.52344 c -0.63393,-0.33154 -1.04297,-0.43796 -1.04297,-0.13867 0,0.0158 0.87587,0.10902 1.04297,0.13867 z" />
    <path
       style="fill:#fff6d5;stroke:#000000;stroke-width:0.264583px;stroke-linecap:butt;stroke-linejoin:miter;stroke-opacity:1"
       d="m 78.884462,59.557768 c 0.760531,2.799244 -1.171073,8.701683 0,11.043825 0.369069,0.73814 1.031533,-0.485381 1.577689,-1.577689 1.048737,-2.097474 1.045633,-1.953633 1.972111,-4.733068 0.09297,-0.2789 0.186542,-0.996722 0.394423,-0.788845 0.551158,0.551159 1.496282,3.78141 1.972111,4.733068 0.262948,0.525897 0.570479,1.031772 0.788845,1.577689 0.04883,0.122071 0,0.525897 0,0.394423 0,-3.836583 -0.458507,-1.238502 1.972111,-5.12749 0.09391,-0.150257 -0.187819,-1.277178 0,-1.183267 1.073195,0.536596 2.103861,6.310757 2.366534,6.310757 0.131474,0 -0.06523,-0.280271 0,-0.394423 0.470376,-0.823158 1.131536,-1.529998 1.577689,-2.366533 2.371403,-4.446379 2.445772,-7.123848 7.888445,-6.70518 6.87367,0.528744 17.16236,3.452461 15.77689,12.227092 -1.28118,8.114178 -5.75231,9.120449 -12.62151,11.043824 -1.32179,0.370102 -2.58364,1.001856 -3.94422,1.183267 -5.54441,0.739254 -8.69841,0.58511 -14.199206,0.788845 -1.121574,0.04154 -7.306347,0.43511 -8.282869,0.394422 -4.584845,-0.191034 -14.713936,-1.537533 -16.960159,-6.310757 -2.991694,-6.35735 0.128212,-11.383047 5.12749,-15.38247 2.161191,-1.728954 5.709648,-0.983869 8.282869,-1.577689 1.992913,-0.459904 4.230346,-1.577689 6.310757,-1.577689"
       id="path75"
       sodipodi:nodetypes="csssssssssssssssssssssc" />
    <path
       style="fill:#fff6d5;stroke:#000000;stroke-width:0.264583px;stroke-linecap:butt;stroke-linejoin:miter;stroke-opacity:1"
       d="m 87.16733,106.88845 c -9.031351,-0.2659 -9.036481,10.36754 -9.860558,16.96015 -0.166304,1.33043 -0.6775,2.60808 -0.788844,3.94423 -0.09647,1.15759 -0.385713,8.89627 0,9.86056 0.312652,0.78163 1.094922,1.28244 1.577689,1.97211 3.260214,4.65745 7.219693,10.0263 13.804781,7.0996 6.646783,-2.95413 8.957412,-12.48958 8.677292,-18.93227 -0.17042,-3.91962 -4.443837,-14.69882 -7.494025,-17.74901 -1.54426,-1.54426 -3.838028,-2.6358 -5.916335,-3.15537 z"
       id="path1524" />
    <path
       style="opacity:0.845659;fill:none;stroke:#000000;stroke-width:4.97;stroke-linecap:butt;stroke-linejoin:miter;stroke-miterlimit:4;stroke-dasharray:none;stroke-opacity:1"
       d="m 34.803628,65.065046 c 2.493502,-5.434743 4.987066,-10.869622 9.383715,-16.233117 4.396649,-5.363495 10.696053,-10.655245 18.83317,-13.372683 8.137116,-2.717437 18.111176,-2.860457 26.576264,-2.288322 8.465089,0.572136 15.420673,1.859317 21.851513,4.505361 6.43083,2.646045 12.33653,6.650616 17.19241,11.370486 4.85588,4.71987 8.66177,10.154639 12.46752,15.589204"
       id="path2130"
       inkscape:path-effect="#path-effect2132"
       inkscape:original-d="m 34.803628,65.065046 c 2.493828,-5.434593 4.987393,-10.869472 7.480693,-16.304639 6.299921,-5.291675 12.599326,-10.583425 18.898593,-15.875568 9.974719,-0.142739 19.948779,-0.285759 29.922773,-0.42907 6.956136,1.287522 13.911723,2.574705 20.867203,3.861625 5.90618,4.005017 11.81188,8.009583 17.71743,12.013944 3.8063,5.435277 7.61219,10.870046 11.4179,16.304637" />
    <ellipse
       style="fill:#504416;stroke-width:0.264583"
       id="path1911"
       cx="35.103584"
       cy="70.99601"
       rx="5.9163346"
       ry="9.466135" />
    <ellipse
       style="fill:#504416;stroke-width:0.264583"
       id="ellipse2095"
       cx="141.59761"
       cy="69.812744"
       rx="5.9163346"
       ry="9.466135" />
    <ellipse
       style="opacity:0.845659;fill:#554400;stroke:#000000;stroke-width:4.97001;stroke-miterlimit:4;stroke-dasharray:none"
       id="path10402"
       cx="68.037842"
       cy="69.221115"
       rx="1.7749003"
       ry="2.1693225" />
    <ellipse
       style="opacity:0.845659;fill:#554400;stroke:#000000;stroke-width:4.97001;stroke-miterlimit:4;stroke-dasharray:none"
       id="path10404"
       cx="101.36653"
       cy="67.446213"
       rx="2.7609563"
       ry="3.1553786" />
    <ellipse
       style="opacity:0.845659;fill:#ffffff;stroke:#000000;stroke-width:4.97001;stroke-miterlimit:4;stroke-dasharray:none"
       id="path12082"
       cx="68.037842"
       cy="70.207169"
       rx="1.3804781"
       ry="1.1832669" />
    <path
       style="fill:none;stroke:#000000;stroke-width:2.165;stroke-linecap:butt;stroke-linejoin:miter;stroke-miterlimit:4;stroke-dasharray:none;stroke-opacity:1"
       d="m 72.573705,76.517928 c 0.394422,0.788844 0.654092,1.660969 1.183267,2.366534 0.483115,0.644154 2.668727,1.41547 3.155378,1.577689 6.074815,2.024938 12.073268,2.522 17.749004,-0.788845 0.662188,-0.386278 1.43003,-0.641186 1.972111,-1.183267 0.63064,-0.630639 -0.607248,-1.608915 -0.788844,-1.972111"
       id="path12145" />
    <circle
       style="opacity:0.845659;fill:#554400;stroke:#000000;stroke-width:4.97001;stroke-miterlimit:4;stroke-dasharray:none"
       id="path10406"
       cx="87.36454"
       cy="137.45618"
       r="0.19721116" />
    <circle
       style="opacity:0.845659;fill:#ffffff;stroke:#000000;stroke-width:2.165;stroke-miterlimit:4;stroke-dasharray:none"
       id="path12527"
       cx="100.57768"
       cy="67.051796"
       r="2.3665338" />
  </g>
</svg>
